<?xml version="1.0" standalone="no"?>
<!DOCTYPE svg PUBLIC "-//W3C//DTD SVG 20010904//EN"
 "http://www.w3.org/TR/2001/REC-SVG-20010904/DTD/svg10.dtd">
<svg version="1.0" xmlns="http://www.w3.org/2000/svg"
 width="500.000000pt" height="500.000000pt" viewBox="0 0 500.000000 500.000000"
 preserveAspectRatio="xMidYMid meet">

<g transform="translate(0.000000,500.000000) scale(0.100000,-0.100000)"
fill="#000000" stroke="none">
<path d="M1404 3663 c4 -60 19 -209 33 -333 39 -348 33 -538 -22 -662 -7 -17
5 -18 175 -18 l183 0 -6 88 c-4 48 -18 154 -32 235 -14 82 -25 153 -25 158 0
5 80 9 189 9 l188 0 7 -46 c16 -123 0 -307 -35 -396 l-19 -48 180 0 180 0 0
69 c0 39 -23 204 -51 368 -46 274 -50 308 -46 423 4 122 6 134 52 243 7 16 -4
17 -153 17 -89 0 -163 -3 -165 -7 -7 -12 11 -271 28 -405 8 -67 15 -128 15
-135 0 -10 -43 -13 -194 -13 l-193 0 -11 88 c-22 169 -24 208 -12 286 10 65
26 115 58 179 2 4 -72 7 -164 7 l-167 0 7 -107z"/>
<path d="M2556 3613 c15 -27 36 -60 46 -75 10 -14 32 -57 49 -95 175 -389 138
-593 -108 -593 -47 0 -53 -2 -53 -21 0 -22 27 -66 69 -112 34 -38 110 -76 166
-84 89 -12 186 52 201 133 16 85 -25 251 -112 449 l-44 100 35 -40 c137 -158
224 -342 258 -545 l13 -75 59 0 60 0 33 65 c30 60 78 201 135 395 l23 80 13
-128 c15 -151 8 -257 -23 -351 l-23 -66 178 0 178 0 -5 68 c-3 37 -17 135 -31
217 -54 330 -63 393 -63 475 0 91 19 184 46 225 l16 25 -159 0 -160 0 -7 -142
c-10 -229 -52 -472 -104 -603 l-19 -50 -5 101 c-3 93 -6 106 -46 189 -48 100
-81 149 -190 279 -72 87 -122 172 -122 209 0 15 -15 17 -165 17 l-166 0 27
-47z"/>
<path d="M1601 1963 c-19 -37 -91 -212 -91 -222 0 -27 29 -7 45 32 11 23 20
43 20 45 1 1 19 -5 40 -13 68 -29 125 3 125 70 0 36 -25 62 -83 88 -46 21 -44
21 -56 0z m77 -43 c36 -22 41 -47 13 -81 -17 -22 -21 -22 -60 -10 -45 13 -47
20 -14 84 16 32 19 33 61 7z"/>
<path d="M3276 1931 c-33 -22 -55 -56 -56 -86 0 -43 24 -101 55 -132 27 -27
41 -33 75 -33 94 0 146 72 120 165 -26 92 -121 134 -194 86z m124 -31 c48 -48
55 -137 14 -169 -70 -55 -154 7 -154 114 0 65 94 101 140 55z"/>
<path d="M1820 1868 c-33 -18 -67 -70 -75 -117 -18 -108 97 -189 185 -129 27
18 39 37 54 81 16 51 17 62 5 94 -8 20 -26 45 -40 55 -33 25 -97 33 -129 16z
m95 -32 c39 -17 51 -46 42 -103 -16 -94 -98 -132 -157 -73 -38 38 -20 138 32
174 28 20 39 20 83 2z"/>
<path d="M3117 1873 c-3 -4 12 -62 32 -128 27 -86 43 -121 55 -123 20 -4 19 0
-28 151 -29 92 -46 121 -59 100z"/>
<path d="M2066 1812 c-2 -10 -12 -62 -21 -117 -9 -55 -18 -108 -20 -117 -2
-12 3 -18 15 -18 13 0 19 11 24 50 6 46 9 50 35 50 25 0 30 -7 52 -62 15 -40
31 -64 42 -66 16 -3 15 3 -7 62 -14 36 -21 66 -16 66 24 0 50 41 50 79 0 48
-10 57 -88 75 -56 13 -62 13 -66 -2z m112 -44 c17 -14 15 -53 -3 -68 -14 -12
-82 -17 -91 -7 -2 2 -1 25 2 51 l7 48 36 -7 c20 -4 42 -11 49 -17z"/>
<path d="M2937 1823 c-3 -4 9 -64 25 -132 l30 -123 37 6 c73 12 110 26 105 40
-4 12 -13 12 -57 0 -28 -7 -53 -11 -55 -9 -2 2 -16 52 -31 111 -24 97 -41 130
-54 107z"/>
<path d="M2724 1790 c-74 -30 -88 -162 -24 -230 23 -25 36 -30 75 -30 99 0
149 68 126 172 -14 60 -58 98 -114 97 -23 0 -52 -4 -63 -9z m106 -30 c41 -22
53 -130 19 -174 -29 -37 -99 -37 -127 -1 -40 51 -34 160 10 178 22 9 79 7 98
-3z"/>
<path d="M2250 1775 c0 -11 11 -15 40 -15 l40 0 -7 -120 c-5 -103 -4 -120 9
-120 12 0 17 23 24 118 l9 117 43 -3 c32 -3 42 0 42 11 0 16 -59 27 -146 27
-41 0 -54 -4 -54 -15z"/>
<path d="M2480 1651 c0 -85 4 -132 11 -137 18 -11 30 18 27 66 l-3 45 53 3
c36 2 52 7 52 17 0 10 -16 15 -52 17 l-53 3 -3 42 -3 42 57 3 c35 2 59 8 62
16 3 9 -16 12 -72 12 l-76 0 0 -129z"/>
</g>
</svg>
